<svg xmlns="http://www.w3.org/2000/svg" width="960" height="520" viewBox="0 0 960 520" role="img" aria-labelledby="title desc">
  <title id="title">Download the macOS release zip</title>
  <desc id="desc">Illustration showing the GitHub release page and the macOS zip asset.</desc>
  <rect width="960" height="520" rx="28" fill="#f6f8fb"/>
  <rect x="70" y="58" width="820" height="404" rx="22" fill="#ffffff" stroke="#d5deea" stroke-width="4"/>
  <rect x="70" y="58" width="820" height="74" rx="22" fill="#22304a"/>
  <circle cx="112" cy="95" r="12" fill="#ff7a59"/>
  <circle cx="148" cy="95" r="12" fill="#ffd35b"/>
  <circle cx="184" cy="95" r="12" fill="#6bceff"/>
  <text x="230" y="104" font-family="Arial, sans-serif" font-size="28" font-weight="700" fill="#ffffff">GitHub Releases</text>
  <text x="118" y="184" font-family="Arial, sans-serif" font-size="32" font-weight="800" fill="#22304a">Kids Memory Trainer</text>
  <text x="118" y="228" font-family="Arial, sans-serif" font-size="22" fill="#5c6b82">Open the newest release and download the macOS zip.</text>
  <rect x="118" y="282" width="724" height="86" rx="18" fill="#fff1a8" stroke="#ffd35b" stroke-width="4"/>
  <path d="M166 305v34m0 0l-15-15m15 15l15-15" fill="none" stroke="#22304a" stroke-width="8" stroke-linecap="round" stroke-linejoin="round"/>
  <rect x="145" y="349" width="42" height="8" rx="4" fill="#22304a"/>
  <text x="220" y="335" font-family="Arial, sans-serif" font-size="28" font-weight="800" fill="#22304a">Kids Memory Trainer macOS vX.X.X.zip</text>
  <text x="220" y="362" font-family="Arial, sans-serif" font-size="18" fill="#5c6b82">Release asset</text>
  <rect x="650" y="304" width="160" height="42" rx="21" fill="#24b47e"/>
  <text x="696" y="333" font-family="Arial, sans-serif" font-size="20" font-weight="800" fill="#ffffff">Download</text>
</svg>
